<svg width="32" height="32" viewBox="0 0 32 32" fill="none" xmlns="http://www.w3.org/2000/svg">
<g clip-path="url(#clip0)" filter="url(#filter0_d)">
<path d="M27.794 0.206011C27.5194 -0.0686296 27.0744 -0.0686296 26.7998 0.206011L24.4452 2.56054C23.6626 2.19121 22.7065 2.31079 22.0602 2.95706L17.5856 7.4316L20.5682 10.4146L25.0429 5.93985C25.6893 5.29354 25.8088 4.33739 25.4395 3.55481L27.794 1.20028C28.0687 0.925589 28.0687 0.480652 27.794 0.206011Z" fill="#E31E25"/>
<path d="M8.13981 21.8515L6.14992 19.8609C6.01141 19.7222 5.8967 19.5693 5.78627 19.4147C5.49264 19.9952 5.47633 20.6764 5.74539 21.2603L4.20602 22.7997C3.93133 23.0744 3.93133 23.5193 4.20602 23.794C4.48066 24.0686 4.92564 24.0686 5.20028 23.794L6.74762 22.2466C7.40598 22.5569 7.95466 22.5321 8.58287 22.2149C8.42856 22.1041 8.27687 21.9883 8.13981 21.8515Z" fill="#E31E25"/>
<path d="M20.071 11.9061L16.094 7.92909C15.2721 7.10648 13.9338 7.10648 13.1105 7.92909C12.555 8.4846 12.3552 9.29549 12.588 10.0474C12.6436 10.2266 12.5633 10.4648 12.3875 10.6406L7.14355 15.8838C6.323 16.7064 6.323 18.044 7.14425 18.8666L9.13349 20.8565C9.9561 21.6777 11.2937 21.677 12.1163 20.8558L12.6635 20.3086L10.1772 17.8229C9.90257 17.5482 9.90257 17.1033 10.1772 16.8286C10.4518 16.554 10.8968 16.554 11.1715 16.8286L13.6577 19.3144L14.6522 18.3199L12.1664 15.8337C11.8918 15.559 11.8918 15.114 12.1664 14.8394C12.4411 14.5648 12.8861 14.5648 13.1607 14.8394L15.6464 17.3256L16.6409 16.3311L14.1549 13.8451C13.8803 13.5705 13.8803 13.1255 14.1549 12.8509C14.4296 12.5762 14.8745 12.5763 15.1491 12.8509L17.721 15.4228C17.8015 15.4057 17.8831 15.391 17.9534 15.4121C18.7053 15.6476 19.5162 15.4464 20.071 14.8896C20.8936 14.067 20.8936 12.7287 20.071 11.9061Z" fill="#E31E25"/>
</g>
<defs>
<filter id="filter0_d" x="0" y="0" width="32" height="32" filterUnits="userSpaceOnUse" color-interpolation-filters="sRGB">
<feFlood flood-opacity="0" result="BackgroundImageFix"/>
<feColorMatrix in="SourceAlpha" type="matrix" values="0 0 0 0 0 0 0 0 0 0 0 0 0 0 0 0 0 0 127 0"/>
<feOffset dy="4"/>
<feGaussianBlur stdDeviation="2"/>
<feColorMatrix type="matrix" values="0 0 0 0 0 0 0 0 0 0 0 0 0 0 0 0 0 0 0.25 0"/>
<feBlend mode="normal" in2="BackgroundImageFix" result="effect1_dropShadow"/>
<feBlend mode="normal" in="SourceGraphic" in2="effect1_dropShadow" result="shape"/>
</filter>
<clipPath id="clip0">
<rect width="24" height="24" fill="white" transform="translate(4)"/>
</clipPath>
</defs>
</svg>
